<svg width="120" height="41" viewBox="0 0 120 41" fill="none" xmlns="http://www.w3.org/2000/svg">
<path d="M7.87609 13.4545H10.5394L15.1701 24.7614H15.3406L19.9713 13.4545H22.6346V28H20.5465V17.4744H20.4116L16.1218 27.9787H14.3889L10.0991 17.4673H9.96416L9.96416 28H7.87609L7.87609 13.4545ZM26.9972 32.0909C26.6799 32.0909 26.3911 32.0649 26.1307 32.0128C25.8703 31.9654 25.6762 31.9134 25.5483 31.8565L26.0597 30.1165C26.4479 30.2206 26.7936 30.2656 27.0966 30.2514C27.3996 30.2372 27.6672 30.1236 27.8992 29.9105C28.1359 29.6974 28.3442 29.3494 28.5242 28.8665L28.787 28.142L24.7955 17.0909H27.0682L29.831 25.5568H29.9446L32.7074 17.0909H34.9872L30.4915 29.456C30.2832 30.0241 30.018 30.5047 29.696 30.8977C29.3741 31.2955 28.9906 31.5938 28.5455 31.7926C28.1004 31.9915 27.5843 32.0909 26.9972 32.0909ZM50.3796 17.2756C50.3039 16.6032 49.9914 16.0824 49.4421 15.7131C48.8929 15.339 48.2016 15.152 47.3683 15.152C46.7717 15.152 46.2556 15.2467 45.82 15.4361C45.3844 15.6207 45.0458 15.8764 44.8044 16.2031C44.5676 16.5251 44.4492 16.892 44.4492 17.304C44.4492 17.6496 44.5297 17.9479 44.6907 18.1989C44.8564 18.4498 45.0719 18.6605 45.337 18.831C45.6069 18.9967 45.8957 19.1364 46.2035 19.25C46.5113 19.3589 46.8072 19.4489 47.0913 19.5199L48.5117 19.8892C48.9758 20.0028 49.4516 20.1567 49.9393 20.3509C50.427 20.545 50.8792 20.8007 51.2958 21.1179C51.7125 21.4351 52.0487 21.8281 52.3044 22.2969C52.5648 22.7656 52.695 23.3267 52.695 23.9801C52.695 24.804 52.4819 25.5355 52.0558 26.1747C51.6344 26.8139 51.0212 27.3182 50.2163 27.6875C49.4161 28.0568 48.4478 28.2415 47.3115 28.2415C46.2224 28.2415 45.2802 28.0687 44.4848 27.723C43.6893 27.3774 43.0667 26.8873 42.6169 26.2528C42.167 25.6136 41.9185 24.8561 41.8711 23.9801H44.0728C44.1154 24.5057 44.2859 24.9437 44.5842 25.294C44.8872 25.6397 45.2731 25.8977 45.7419 26.0682C46.2153 26.2339 46.7338 26.3168 47.2973 26.3168C47.9175 26.3168 48.4691 26.2197 48.9521 26.0256C49.4398 25.8267 49.8233 25.5521 50.1027 25.2017C50.382 24.8466 50.5217 24.4323 50.5217 23.9588C50.5217 23.5279 50.3986 23.1752 50.1524 22.9006C49.9109 22.6259 49.5818 22.3987 49.1652 22.2187C48.7532 22.0388 48.2868 21.8802 47.766 21.7429L46.0473 21.2741C44.8825 20.9569 43.9592 20.4905 43.2774 19.875C42.6003 19.2595 42.2617 18.4451 42.2617 17.4318C42.2617 16.5937 42.489 15.8622 42.9436 15.2372C43.3981 14.6122 44.0136 14.1269 44.7902 13.7812C45.5667 13.4309 46.4426 13.2557 47.418 13.2557C48.4028 13.2557 49.2717 13.4285 50.0245 13.7741C50.7821 14.1198 51.3787 14.5956 51.8143 15.2017C52.2499 15.803 52.4772 16.4943 52.4961 17.2756H50.3796ZM57.1002 24.2997L57.086 21.7074H57.4553L61.8019 17.0909H64.3445L59.3871 22.3466H59.0533L57.1002 24.2997ZM55.147 28V13.4545L57.2706 13.4545V28H55.147ZM62.0362 28L58.13 22.8153L59.5931 21.331L64.6428 28H62.0362ZM66.2799 28V17.0909L68.4034 17.0909V28H66.2799ZM67.3523 15.4077C66.983 15.4077 66.6657 15.2846 66.4006 15.0384C66.1402 14.7874 66.01 14.4891 66.01 14.1435C66.01 13.7931 66.1402 13.4948 66.4006 13.2486C66.6657 12.9976 66.983 12.8722 67.3523 12.8722C67.7216 12.8722 68.0365 12.9976 68.2969 13.2486C68.562 13.4948 68.6946 13.7931 68.6946 14.1435C68.6946 14.4891 68.562 14.7874 68.2969 15.0384C68.0365 15.2846 67.7216 15.4077 67.3523 15.4077ZM73.3839 13.4545V28H71.2603V13.4545H73.3839ZM78.3644 13.4545V28H76.2408V13.4545H78.3644ZM89.396 19.7543L87.4713 20.0952C87.3908 19.849 87.2629 19.6146 87.0877 19.392C86.9173 19.1695 86.6853 18.9872 86.3917 18.8452C86.0982 18.7031 85.7312 18.6321 85.2909 18.6321C84.6895 18.6321 84.1876 18.767 83.7852 19.0369C83.3827 19.3021 83.1815 19.6454 83.1815 20.0668C83.1815 20.4313 83.3164 20.7249 83.5863 20.9474C83.8562 21.17 84.2918 21.3523 84.8931 21.4943L86.6261 21.892C87.6299 22.1241 88.378 22.4815 88.8704 22.9645C89.3628 23.4474 89.609 24.0748 89.609 24.8466C89.609 25.5 89.4196 26.0824 89.0409 26.5937C88.6668 27.1004 88.1436 27.4981 87.4713 27.7869C86.8036 28.0758 86.0295 28.2202 85.1488 28.2202C83.9272 28.2202 82.9305 27.9598 82.1588 27.4389C81.387 26.9134 80.9135 26.1676 80.7383 25.2017L82.7909 24.8892C82.9187 25.4242 83.1815 25.8291 83.5792 26.1037C83.9769 26.3736 84.4954 26.5085 85.1346 26.5085C85.8306 26.5085 86.387 26.3641 86.8036 26.0753C87.2203 25.7817 87.4286 25.4242 87.4286 25.0028C87.4286 24.6619 87.3008 24.3755 87.0451 24.1435C86.7942 23.9115 86.4083 23.7363 85.8875 23.6179L84.0409 23.2131C83.0229 22.9811 82.27 22.6117 81.7823 22.1051C81.2994 21.5985 81.0579 20.9569 81.0579 20.1804C81.0579 19.5365 81.2378 18.973 81.5977 18.4901C81.9575 18.0071 82.4547 17.6307 83.0892 17.3608C83.7236 17.0862 84.4504 16.9489 85.2696 16.9489C86.4485 16.9489 87.3766 17.2045 88.0536 17.7159C88.7307 18.2225 89.1782 18.902 89.396 19.7543Z" fill="#FD6F00"/>
<path d="M119.033 20.5C119.033 23.2243 117.427 25.8567 114.438 28.2855C111.451 30.7127 107.114 32.9095 101.733 34.7593C90.9723 38.4579 76.0907 40.75 59.6413 40.75C43.1918 40.75 28.3102 38.4579 17.5498 34.7593C12.1683 32.9095 7.83129 30.7127 4.84457 28.2855C1.85584 25.8567 0.25 23.2243 0.25 20.5C0.25 17.7757 1.85584 15.1433 4.84457 12.7145C7.83129 10.2873 12.1683 8.09045 17.5498 6.24073C28.3102 2.54213 43.1918 0.25 59.6413 0.25C76.0907 0.25 90.9723 2.54213 101.733 6.24073C107.114 8.09045 111.451 10.2873 114.438 12.7145C117.427 15.1433 119.033 17.7757 119.033 20.5Z" stroke="#FD6F00" stroke-width="0.5"/>
</svg>
